# xmcd
#
# Track frame offsets:
#	150
#	12322
#	29710
#	46485
#	58942
#	73615
#	86517
#	101742
#	115887
#	132495
#
# Disc length: 1929
#
# Revision: 4
# Processed by: cddbd v1.5.1PL0 Copyright (c) Steve Scherf et al.
# Submitted via: audiograbber 1.83.01
# Normalized: r3:DSETVAR1
#
DISCID=9107870a
DTITLE=Various Artist - Country Movers
DYEAR=1992
DGENRE=Country
TTITLE0=Janie Fricke - Easy To Please
TTITLE1=Exile - Just One Kiss
TTITLE2=Ricky Skaggs - Cajun Moon
TTITLE3=Ricky Van Shelton - Wild Eyed Dream
TTITLE4=Shenandoah - The Don't Make Love Like We Used To
TTITLE5=Ronnie McDowell - I Got A Million of 'Em
TTITLE6=T. G. Sheppard - You're My First Lady
TTITLE7=Lee Greenwood - I.O.U.
TTITLE8=The Charlie Daniels Band - Drinkin' My Baby Goodbye
TTITLE9=Sweethearts of the Rodeo - Satisfy You
EXTD=
EXTT0=
EXTT1=
EXTT2=
EXTT3=
EXTT4=
EXTT5=
EXTT6=
EXTT7=
EXTT8=
EXTT9=
PLAYORDER=
